<svg xmlns="http://www.w3.org/2000/svg" viewBox="0 0 260.19 218.19"><defs><style>.cls-1{fill:none;stroke:#000;stroke-miterlimit:10;stroke-width:4px;}</style></defs><g id="Layer_2" data-name="Layer 2"><g id="Layer_2-2" data-name="Layer 2"><path class="cls-1" d="M202.21,58.19a7,7,0,0,1,4.15-1.82c2.49-.3,4.51,1.82,5.1,2.43a11.39,11.39,0,0,1,2.79,8c-.12,5.06-3.3,9.26-4,10.19a28.87,28.87,0,0,0-3.4,5.34,5.77,5.77,0,0,0-.85,3.52A5.84,5.84,0,0,0,207.82,89,8.17,8.17,0,0,0,210.73,91a14.68,14.68,0,0,0-6.67,4.86c-.42-.41-1-1-1.58-1.7,0,0,.69-.57-.3-2.28"/><g id="Layer_2-2-2" data-name="Layer 2-2"><path class="cls-1" d="M184.6,21c.62.5,1.38,1.14,2.13,1.81"/><path class="cls-1" d="M118.76,8A93.11,93.11,0,0,1,132.6,6.63a81.29,81.29,0,0,1,15,1.31c1.54.27,5.21,1,10.61,2.51"/><path class="cls-1" d="M78.63,52.07a58.58,58.58,0,0,1,15-28.63"/><path class="cls-1" d="M84.78,89.49a54,54,0,0,1-6.3-5.7"/></g><g id="Layer_3" data-name="Layer 3"><path class="cls-1" d="M84.18,69.49c-.06,4.32.07,9,.48,13.83q.25,3,.61,5.83a15.13,15.13,0,0,0-4.61,4.61,4.52,4.52,0,0,0,2.79.12A4.41,4.41,0,0,0,85,93a8.06,8.06,0,0,0,1.45,1.58c.74.61,1.34,1.1,1.82,1s.88-1.32,1-3c.15-3-.38-4.69-1-8a49.34,49.34,0,0,1-.85-6.92,37.86,37.86,0,0,1,.12-5.1c.11-1.07.25-2,.37-2.67"/><path class="cls-1" d="M184.27,76.71c-.18,2.87-.31,5.87-.36,9-.07,4.47,0,6.73.24,10.74"/></g><g id="Layer_5" data-name="Layer 5"><path class="cls-1" d="M87.47,72.82A23.77,23.77,0,0,1,90.38,63a22.26,22.26,0,0,1,9.23-8.61c1.42-.72,4.11-1.88,13.83-2.43a151.15,151.15,0,0,1,16,0c9.87.44,14.8.66,20.27,1.94A53.16,53.16,0,0,1,165,59.6c3.91,2.23,9.47,5.5,13.35,11.89A21.65,21.65,0,0,1,181.87,82a27.86,27.86,0,0,1-.24,4.13c-.43,4-1.19,4.87-2.07,9.07"/></g><g id="Layer_6" data-name="Layer 6"><path class="cls-1" d="M96.92,12.94a16.5,16.5,0,0,1,10-5.58C108.78,6.93,115,5.54,121,9.3a15.76,15.76,0,0,1,6.91,9c1.65,6-1.23,11-2.3,12.87a16.57,16.57,0,0,1-8.25,7.64c-5.47,2.12-10.42.22-12.26-.49a17.6,17.6,0,0,1-7.88-5.7,16.3,16.3,0,0,1-3.52-9.34A15.63,15.63,0,0,1,96.92,12.94Z"/><path class="cls-1" d="M151.64,16.33a17.29,17.29,0,0,1,8-6.43A18.23,18.23,0,0,1,169,9.17c2.93.38,7.78,1,11.64,5a16.74,16.74,0,0,1,4.37,9,18.61,18.61,0,0,1-1.09,10.19c-1.55,3.78-4,6-6.07,7.89a14.29,14.29,0,0,1-4.49,3.15c-2.73,1.1-5.13.83-7.88.49a21.94,21.94,0,0,1-9.83-3.16,16.11,16.11,0,0,1-6.55-6.91c-2.32-5.09-.82-10.13,0-12.87A18.77,18.77,0,0,1,151.64,16.33Z"/></g><g id="Layer_7" data-name="Layer 7"><path class="cls-1" d="M101.66,15.36A11.85,11.85,0,0,1,108.21,12c5.61-.71,9.56,3.69,9.83,4a12.33,12.33,0,0,1,2.79,9.22,11.35,11.35,0,0,1-3.28,7,11.72,11.72,0,0,1-8.49,3,12.47,12.47,0,0,1-8.13-3c-1-.86-4.33-4.14-4-8.86C97.21,19.31,100.05,16.79,101.66,15.36Z"/><path class="cls-1" d="M154.68,21.79c2.09-3.48,6.11-4.28,7.76-4.61a13,13,0,0,1,9.83,1.58,11.46,11.46,0,0,1,5.1,7.4,11.23,11.23,0,0,1-1.46,7.52,11,11,0,0,1-6.55,5.46c-2.92.76-5.37-.16-7.52-1s-4.42-1.59-6.19-3.88a11.3,11.3,0,0,1-2.19-6.67A10.19,10.19,0,0,1,154.68,21.79Z"/></g><g id="Layer_8" data-name="Layer 8"><path class="cls-1" d="M101.84,19.06a1.74,1.74,0,0,1,1-1.39,1.44,1.44,0,0,1,1-.25c.49.12.57.56,1.27,1.52s1.08,1,1.16,1.58a1.94,1.94,0,0,1-.73,1.7,1.34,1.34,0,0,1-2.25-.43,5.57,5.57,0,0,1-.42-1.09C102.44,19.66,101.86,19.67,101.84,19.06Z"/><path class="cls-1" d="M107.78,27.19c.59-.39,1.21.53,2.49.43a4,4,0,0,0,2.43-1.4,4.58,4.58,0,0,0,1.45-2.49c.17-1-.2-1.59.25-2.06a1.39,1.39,0,0,1,1.33-.3,1.58,1.58,0,0,1,.91.73c.64,1,.31,2.26,0,3.39a6.82,6.82,0,0,1-1.27,2.86,6.48,6.48,0,0,1-4,2.06c-.86.17-2.79.55-3.58-.43a2,2,0,0,1-.36-.85C107.29,28.56,107.27,27.54,107.78,27.19Z"/><path class="cls-1" d="M156.68,24.28a1.17,1.17,0,0,1-.06-.73c.08-.23.23-.32,1.39-.91a2.12,2.12,0,0,1,1.1-.36,1.34,1.34,0,0,1,.6.24,3.07,3.07,0,0,1,1.1,3,2.59,2.59,0,0,1-.43,1,1.91,1.91,0,0,1-1.58.84,1.1,1.1,0,0,1-.6-.24c-.4-.32-.24-.67-.55-1.33S156.9,25,156.68,24.28Z"/><path class="cls-1" d="M164.87,34a1.54,1.54,0,0,1-.67-1.1,1.22,1.22,0,0,1,.43-.84c.61-.52,1.27,0,2.24-.25a3.58,3.58,0,0,0,1.94-1.7,4.43,4.43,0,0,0,1-2.54,3.39,3.39,0,0,1,.12-1.7c.08-.16.29-.61.67-.67s.93.51,1.09.73a4.56,4.56,0,0,1,.67,3.27,6.06,6.06,0,0,1-2.24,4C168.44,34.45,166,34.87,164.87,34Z"/><path class="cls-1" d="M132.23,45.57c0-.76,1.33-1.44,2.43-1.33s2,.79,2,1.52-1.29,1.32-2.3,1.27S132.21,46.3,132.23,45.57Z"/></g><path class="cls-1" d="M256.83,142.45c-11.72-9.61-55.94-43.53-121.66-43C68,100,23.77,136.11,12.53,145.87l.56-10.42C24.33,125.69,68.6,89.58,135.73,89c65.73-.54,110,33.39,121.66,43Z"/><polyline class="cls-1" points="13.09 133.66 12.53 47.03 26.7 47.03 26.7 124.77"/><polyline class="cls-1" points="243.22 121.52 242.65 49.89 256.83 49.89 256.83 130.62"/><polyline class="cls-1" points="188.02 95.88 187.46 21.25 201.63 21.25 201.63 98.99"/><polyline class="cls-1" points="64.87 103.18 64.31 19.56 78.48 19.56 78.48 97.29"/><circle class="cls-1" cx="19.61" cy="38.27" r="8.45"/><circle class="cls-1" cx="249.74" cy="40.72" r="8.45"/><circle class="cls-1" cx="194.54" cy="12.35" r="8.45"/><circle class="cls-1" cx="71.4" cy="10.45" r="8.45"/><path class="cls-1" d="M22.06,137.23C18,141.48,11.93,156.84,7.65,167.46c-3.4,8.4-7.86,19.43-4.4,28.58,6.19,16.38,37.08,25,60.34,17.35,22.27-7.28,21.14-24,48.62-35.18a98.44,98.44,0,0,1,39.57-6.6c29.37,1.17,40.87,15.32,55.95,8.8,10.42-4.51,6.41-17.13,18.81-26.14,8.53-6.21,19.51-15.05,26.41-14.85"/></g></g></svg>