<svg xmlns="http://www.w3.org/2000/svg" viewBox="0 0 299.65 296.97"><defs><style>.cls-1{fill:none;stroke:#000;stroke-width:5px;}</style></defs><g id="Layer_2" data-name="Layer 2"><g id="Layer_2-2" data-name="Layer 2"><line class="cls-1" x1="203.91" y1="54.95" x2="243.04" y2="96.57"/><line class="cls-1" x1="203.91" y1="54.95" x2="87.99" y2="164.65"/><line class="cls-1" x1="243.04" y1="96.57" x2="127.56" y2="204.69"/><path class="cls-1" d="M102.16,242.31,55.25,193a21.53,21.53,0,0,1-2-10.26c.77-11.53,11.76-22.76,23-22.48a18.58,18.58,0,0,1,9.28,2.94l45,49.35a26.48,26.48,0,0,1,.48,8.79c-.16,1.5-2,15.59-13.68,20.52A22.54,22.54,0,0,1,102.16,242.31Z"/><path class="cls-1" d="M60.49,198.47c-2.82-3.19-7.14-3.78-9.64-2.09-3,2.06-3.83,7.83,0,11.73q15.88,17.64,31.76,35.29a7.83,7.83,0,0,0,9.29-.6,7.94,7.94,0,0,0,.3-11"/><path class="cls-1" d="M139.13,86.05l64.78-62.63C226.5-5.87,274,.08,287.34,14.13c12.53,13.2,17.38,60.93-12.22,82.44l-73.38,74.15"/><path class="cls-1" d="M61.6,168.53,3.46,104a48.64,48.64,0,0,1,14.17-9.78c25-11.17,44.2,7.2,71.82,9.78,26.82,2.49,30.32-12.81,104.08-44.47C232.78,42.72,250,27.89,261.44,41.49c7.82,9.29,5.11,11-29.36,75.48-36.91,69-46.67,73.52-45.05,94.61,1.54,20,11.89,36,4.05,61a73.31,73.31,0,0,1-10.26,20.52c-20.19-19.87-34.91-38.2-55.11-58.07"/></g></g></svg>