<svg xmlns="http://www.w3.org/2000/svg" viewBox="0 0 282.86 284.49"><defs><style>.cls-1{fill:none;stroke:#000;stroke-miterlimit:10;stroke-width:5px;}</style></defs><g id="Layer_2" data-name="Layer 2"><g id="Layer_2-2" data-name="Layer 2"><path class="cls-1" d="M244.07,154a8.3,8.3,0,0,1,5.07-2.92c4-.48,7.24,2.91,8.19,3.9,4.57,4.78,4.52,11.31,4.48,12.86-.19,8.13-5.31,14.89-6.43,16.38a47,47,0,0,0-5.46,8.57c-1.15,2.37-1.63,3.9-1.37,5.66a9.38,9.38,0,0,0,2.93,5.06,13.22,13.22,0,0,0,4.68,3.12,24.07,24.07,0,0,0-7.61,4.48,24.41,24.41,0,0,0-3.11,3.32,35.69,35.69,0,0,1-2.54-2.73,42.34,42.34,0,0,1-3.7-5.26"/><path class="cls-1" d="M46.88,131.59c-.7-.92-2.9-3.94-5.9-4.89-4-1.28-7.75.73-8.58,1.17-4.34,2.29-6,6.43-7,8.77A26,26,0,0,0,23.63,145c-.51,6.13-1,12.16,1,19.88a53.35,53.35,0,0,0,7,15.59,59.67,59.67,0,0,0,4.09,5.65A14.73,14.73,0,0,1,33,192.38a15.21,15.21,0,0,1-8.38,5.46A31.64,31.64,0,0,0,30.84,201c3.33,1.21,4.57,1,5.26.78s1.33-.62,2.93-2.15a33.53,33.53,0,0,0,4.48-4.87"/><g id="Layer_2-2-2" data-name="Layer 2-2"><path class="cls-1" d="M204.13,226.1c-15.38,2.9-23.87,4.34-26.91,4.68a204.64,204.64,0,0,1-40.54.19A219.35,219.35,0,0,1,80,217.72a116.84,116.84,0,0,1-18.87-9.08"/><path class="cls-1" d="M214.18,94.29a65.7,65.7,0,0,1,6.7,6.09,61.38,61.38,0,0,1,4.61,6c2.06,2.91,12.14,17.49,17.22,40.76,2.28,10.44,5.49,25.16,1.56,43.66a88,88,0,0,1-8.19,22.61,51.75,51.75,0,0,1-4.48,3.31,53.78,53.78,0,0,1-14.24,6.18"/><path class="cls-1" d="M147.77,72.2c2.18.28,4.51.62,7,1s8.38,1.63,17.06,4"/><path class="cls-1" d="M108.4,73.35c8.51-1.76,20.78-2.18,22.23-2.2,1,0,3.79-.05,7.91.2"/><path class="cls-1" d="M53.82,204.26c-3.93-2.84-6.64-5.77-10.12-9.15a102.29,102.29,0,0,1-1.36-47.75c5.6-26.43,21.45-44.71,25.66-49.21"/></g><g id="Layer_3" data-name="Layer 3"><path class="cls-1" d="M52.85,172.13c-.09,7,.13,14.38.78,22.22.27,3.21.59,6.33,1,9.36a24.47,24.47,0,0,0-7.41,7.41,7.24,7.24,0,0,0,4.48.19A7,7,0,0,0,54.22,210a13.32,13.32,0,0,0,2.33,2.53c1.19,1,2.15,1.78,2.93,1.56,1-.28,1.42-2.12,1.56-4.87.24-4.75-.61-7.55-1.56-12.87a77.4,77.4,0,0,1-1.37-11.11,58.41,58.41,0,0,1,.2-8.18c.17-1.73.39-3.19.58-4.29"/><path class="cls-1" d="M213.65,183.73c-.3,4.61-.5,9.43-.58,14.42-.12,7.2,0,14,.39,20.47q1.72,1.9,3.51,4.09c1.51,1.87,2.87,3.7,4.09,5.46a14.43,14.43,0,0,1-11.7-4.29q5.56,5.2,4.88,6.24-.81,1.2-10.14-3.32"/></g><g id="Layer_5" data-name="Layer 5"><path class="cls-1" d="M58.15,177.48a38.06,38.06,0,0,1,4.67-15.78,35.81,35.81,0,0,1,14.82-13.84c2.28-1.15,6.61-3,22.22-3.9a245.62,245.62,0,0,1,25.73,0c15.85.71,23.77,1.06,32.55,3.12a85.52,85.52,0,0,1,24.56,9.16c6.27,3.59,15.2,8.84,21.44,19.1,1.81,3,5.35,9,5.65,17a42.49,42.49,0,0,1-.39,6.62c-.69,6.45-1.91,9.44-3.31,16.18-.53,2.53-1.36,7.14-1.91,11.67"/></g><path class="cls-1" d="M73.33,81.28c5.28-6.58,12.4-8.16,16-9,3.07-.68,13.1-2.92,22.61,3.12,1.92,1.21,8.72,5.67,11.11,14.42,2.65,9.68-2,17.7-3.7,20.66-1.58,2.74-5.33,9.2-13.25,12.28-8.79,3.41-16.74.35-19.69-.78a28.28,28.28,0,0,1-12.67-9.16,26.14,26.14,0,0,1-5.65-15A25.08,25.08,0,0,1,73.33,81.28Z"/><path class="cls-1" d="M161.24,86.74A27.63,27.63,0,0,1,174.1,76.41c6.1-2.32,11.3-1.64,15-1.17,4.72.61,12.5,1.61,18.71,8a27,27,0,0,1,7,14.43A29.94,29.94,0,0,1,213.08,114c-2.49,6.07-6.35,9.58-9.74,12.67-2.55,2.32-4.32,3.9-7.22,5.06-4.38,1.77-8.24,1.34-12.66.78-4.1-.51-9.76-1.21-15.79-5.06-2.74-1.75-7.7-4.92-10.53-11.11-3.72-8.17-1.31-16.27,0-20.66A29.77,29.77,0,0,1,161.24,86.74Z"/><path class="cls-1" d="M80.93,85.18c2.14-1.89,5.43-4.82,10.53-5.46,9-1.13,15.35,5.94,15.79,6.44A19.75,19.75,0,0,1,111.73,101a18.23,18.23,0,0,1-5.26,11.3c-5.18,5-11.74,4.91-13.65,4.88a20.07,20.07,0,0,1-13.06-4.88c-1.55-1.38-7-6.64-6.43-14.22C73.79,91.52,78.34,87.48,80.93,85.18Z"/><path class="cls-1" d="M166.11,95.51c3.35-5.59,9.82-6.88,12.47-7.4,2.15-.43,9.16-1.82,15.79,2.53,1.35.88,6.91,4.67,8.19,11.89a18.09,18.09,0,0,1-2.34,12.08c-.8,1.41-4,7.08-10.53,8.77-4.69,1.22-8.62-.26-12.08-1.56s-7.09-2.55-9.94-6.23a18,18,0,0,1-3.51-10.72A16.3,16.3,0,0,1,166.11,95.51Z"/><path class="cls-1" d="M81.22,91.13a2.88,2.88,0,0,1,1.56-2.25,2.35,2.35,0,0,1,1.66-.39c.79.19.91.89,2,2.44s1.72,1.69,1.85,2.53a3.08,3.08,0,0,1-1.17,2.73,2.66,2.66,0,0,1-2.34.59,2.7,2.7,0,0,1-1.27-1.27,9.32,9.32,0,0,1-.68-1.75C82.19,92.09,81.26,92.1,81.22,91.13Z"/><path class="cls-1" d="M90.78,104.19c.93-.64,1.93.84,4,.68a6.47,6.47,0,0,0,3.9-2.24,7.51,7.51,0,0,0,2.34-4c.27-1.65-.34-2.56.39-3.31a2.22,2.22,0,0,1,2.14-.49A2.61,2.61,0,0,1,105,96c1,1.58.5,3.64,0,5.46a10.83,10.83,0,0,1-2,4.58,10.43,10.43,0,0,1-6.43,3.31c-1.39.28-4.5.89-5.75-.68a3.41,3.41,0,0,1-.59-1.37C90,106.39,90,104.74,90.78,104.19Z"/><path class="cls-1" d="M169.32,99.51a1.94,1.94,0,0,1-.1-1.17c.13-.37.38-.51,2.25-1.46a3.23,3.23,0,0,1,1.75-.59,2.19,2.19,0,0,1,1,.39,4.91,4.91,0,0,1,1.75,4.87,4,4,0,0,1-.68,1.56,3.11,3.11,0,0,1-2.53,1.37,1.92,1.92,0,0,1-1-.39c-.64-.52-.38-1.08-.88-2.15S169.68,100.73,169.32,99.51Z"/><path class="cls-1" d="M182.48,115.1a2.43,2.43,0,0,1-1.07-1.75,2,2,0,0,1,.68-1.37c1-.82,2,0,3.61-.39a5.88,5.88,0,0,0,3.12-2.73,7.11,7.11,0,0,0,1.55-4.09c0-1-.28-1.74.2-2.73.12-.25.46-1,1.07-1.07.77-.13,1.49.82,1.76,1.17a7.37,7.37,0,0,1,1.07,5.26,9.71,9.71,0,0,1-3.61,6.43C188.22,115.85,184.28,116.52,182.48,115.1Z"/><path class="cls-1" d="M130.05,133.71c0-1.22,2.13-2.31,3.9-2.14,1.53.15,3.28,1.27,3.21,2.44s-2.07,2.13-3.7,2S130,134.88,130.05,133.71Z"/><polyline class="cls-1" points="137.78 73.22 144.33 30.3 184.77 28.35"/><polyline class="cls-1" points="147.77 74.35 152.32 39.43 184.76 37.47"/><path class="cls-1" d="M182.55,29.26c1.48-4.14,5.91-8,10.56-8a10.7,10.7,0,0,1,0,21.4c-3.86,0-8.2-3.39-10.08-6.45"/><ellipse class="cls-1" cx="141.43" cy="142.25" rx="138.93" ry="139.75"/></g></g></svg>