<svg xmlns="http://www.w3.org/2000/svg" viewBox="0 0 246.76 246.83"><defs><style>.cls-1{fill:none;stroke:#000;stroke-miterlimit:10;stroke-width:3px;}</style></defs><g id="Layer_2" data-name="Layer 2"><g id="Layer_2-2" data-name="Layer 2"><path class="cls-1" d="M58.73,171.59C49,178.77,39.89,185.24,32.9,189.72c-8.23,5.32-11.55.06-11.89-.42C11.88,177.4,1.5,146,1.5,123.38a121.88,121.88,0,1,1,121.88,122c-22.41,0-43.72-5.6-61.49-16.67-6.85-4.22-9.2-8.44-6.44-14.39,2.09-4.49,10-15.79,19.65-29"/><path class="cls-1" d="M110.06,56.09A126.39,126.39,0,0,1,122.9,13.33a127.42,127.42,0,0,1,12.78,43"/><path class="cls-1" d="M67,84.45a126.55,126.55,0,0,1-21.2-39.3A126.5,126.5,0,0,1,85,66.23"/><path class="cls-1" d="M56.3,135A126.2,126.2,0,0,1,13.67,122.2a126.1,126.1,0,0,1,42.56-12.81"/><path class="cls-1" d="M85.27,177.9a126.5,126.5,0,0,1-39.85,21.64A126.51,126.51,0,0,1,66.5,160.4"/><path class="cls-1" d="M135.48,188.93a126.49,126.49,0,0,1-12.79,42.43A126.8,126.8,0,0,1,110,189"/><path class="cls-1" d="M178.92,160.5a125.41,125.41,0,0,1,21,39,126.61,126.61,0,0,1-39.23-21.15"/><path class="cls-1" d="M189.48,110a125.12,125.12,0,0,1,42.22,12.74,125.64,125.64,0,0,1-42.15,12.76"/><path class="cls-1" d="M161.08,65.88A126.86,126.86,0,0,1,200,45a120.79,120.79,0,0,1-11.28,24.86"/><path class="cls-1" d="M130.34,87.31a80.65,80.65,0,0,0-3.71-11.24,36.09,36.09,0,0,0-3.6-6.71c10.86-16.47,32-23.59,32-23.59s7,14.11,6.88,30"/><path class="cls-1" d="M107.64,95.11a76.77,76.77,0,0,0-14.9-8.18,40.37,40.37,0,0,0-7.68-2.29c-3.67-19.16,6.09-38.73,6.09-38.73S112.17,53,123,69.36a36.64,36.64,0,0,0-3.59,6.71,76.86,76.86,0,0,0-5.06,18.11"/><path class="cls-1" d="M67,84.45A53.94,53.94,0,0,1,85,84.64a39.4,39.4,0,0,0,2.28,7.75,84.69,84.69,0,0,0,4.14,8.49"/><path class="cls-1" d="M59.11,113.06a76.77,76.77,0,0,1-12.93-22.4A77.15,77.15,0,0,1,67,84.45"/><path class="cls-1" d="M92.32,142.82a82,82,0,0,0-4.84,9.75,38.1,38.1,0,0,0-2.28,7.61c-19.3,3.94-39.29-6-39.29-6s5.92-17.59,19.46-28.94"/><path class="cls-1" d="M117.89,166.34c.34.88.69,1.76,1.06,2.62a46.81,46.81,0,0,0,3.88,7.13c-11,16-31.61,23-31.61,23s-9.76-19.71-6-38.94A40.11,40.11,0,0,0,92.39,158c1.37-.55,2.73-1.14,4.06-1.77"/><path class="cls-1" d="M186.5,86.44a73.79,73.79,0,0,1,13.31,4.71s-6.32,18.73-20.77,30"/><path class="cls-1" d="M160.72,178.39a77.82,77.82,0,0,1-6.21,20.8s-20.75-7-31.68-23.1a43.29,43.29,0,0,0,3.94-7.19,72.83,72.83,0,0,0,3.4-10"/><path class="cls-1" d="M178.47,123.94c14.76,11.27,21.21,30.36,21.21,30.36s-13.84,6.85-29.6,6.89"/><polyline class="cls-1" points="81.55 105.22 76.14 104.08 79.28 105.94"/><polyline class="cls-1" points="114.38 94.18 102.97 77.86 107.64 95.11"/><polyline class="cls-1" points="139.72 83.79 140.95 77.86 136.33 85.27"/><polyline class="cls-1" points="139.29 164.6 140.95 167.3 140.43 165.6"/><polyline class="cls-1" points="88.65 133.72 76.14 141.16 90.69 138.05"/><line class="cls-1" x1="104.85" y1="124.11" x2="88.65" y2="133.72"/><polyline class="cls-1" points="122.04 162.45 122.9 181.21 123.81 160.78"/><polyline class="cls-1" points="94.52 148.63 81.32 163.02 95.25 150.64"/><polyline class="cls-1" points="101.01 98.01 80.91 79.53 98.6 99.09"/><polyline class="cls-1" points="124.3 89.52 122.9 62.51 121.62 90.73"/><polyline class="cls-1" points="111.58 94.22 109.2 90.73 110.24 94.66"/><path class="cls-1" d="M81.57,105.1,183.37,68a5.84,5.84,0,0,1,5,1.71,5.18,5.18,0,0,1,1.22,2.85q-10.91,49.66-21.82,99.34a8.53,8.53,0,0,1-4.81,5,8.38,8.38,0,0,1-6.27-.16l-48.86-34.2,56-54.4-74.92,45L56.66,122.36a6.48,6.48,0,0,1-1-4.56,6.55,6.55,0,0,1,2.93-4.32l23-8.38"/><polyline class="cls-1" points="88.91 133.11 104.06 174.97 107.8 142.56"/><line class="cls-1" x1="104.3" y1="179.12" x2="128.09" y2="156.76"/></g></g></svg>