<svg xmlns="http://www.w3.org/2000/svg" viewBox="0 0 225.07 328.41"><defs><style>.cls-1,.cls-2{fill:none;stroke:#000;stroke-miterlimit:10;}.cls-1{stroke-width:3px;}.cls-2{stroke-width:4px;}</style></defs><g id="Layer_2" data-name="Layer 2"><g id="Layer_2-2" data-name="Layer 2"><rect class="cls-1" x="1.5" y="1.5" width="222.07" height="325.41"/><path class="cls-2" d="M175.22,99.23a5.24,5.24,0,0,1,3.17-1.83c2.49-.3,4.53,1.82,5.12,2.44a11.41,11.41,0,0,1,2.8,8c-.12,5.08-3.32,9.31-4,10.24a29.32,29.32,0,0,0-3.41,5.36,4.9,4.9,0,0,0,1,6.7,8.27,8.27,0,0,0,2.93,1.95A15.16,15.16,0,0,0,178,135a14.7,14.7,0,0,0-2,2.07,23,23,0,0,1-1.58-1.71,26.86,26.86,0,0,1-2.32-3.29"/><path class="cls-2" d="M51.9,85.22a8.43,8.43,0,0,0-3.7-3,7.1,7.1,0,0,0-5.36.73,10,10,0,0,0-4.39,5.48,16.25,16.25,0,0,0-1.1,5.24c-.32,3.84-.65,7.61.61,12.44a33.59,33.59,0,0,0,4.39,9.75,35.66,35.66,0,0,0,2.56,3.53,9.27,9.27,0,0,1-1.7,3.9A9.55,9.55,0,0,1,38,126.66a19.74,19.74,0,0,0,3.9,2c2.09.76,2.86.62,3.3.48s.83-.38,1.82-1.34a20.65,20.65,0,0,0,2.81-3"/><g id="Layer_2-2-2" data-name="Layer 2-2"><path class="cls-2" d="M150.24,144.33c-9.62,1.81-14.93,2.72-16.83,2.93a129,129,0,0,1-25.35.12,137.13,137.13,0,0,1-35.48-8.29,72.73,72.73,0,0,1-11.8-5.68"/><path class="cls-2" d="M156.53,61.9a41.34,41.34,0,0,1,4.18,3.81,37.78,37.78,0,0,1,2.89,3.76A71.32,71.32,0,0,1,174.37,95c1.42,6.53,3.43,15.74,1,27.31a54.93,54.93,0,0,1-5.12,14.14,31.61,31.61,0,0,1-2.8,2.07,33.53,33.53,0,0,1-8.91,3.86"/><path class="cls-2" d="M90.37,48.8a96.08,96.08,0,0,1,13.91-1.38,83.55,83.55,0,0,1,15.07,1.32c1.55.27,5.23,1,10.66,2.53"/><path class="cls-2" d="M56.23,130.68A55.22,55.22,0,0,1,49.91,125a63.94,63.94,0,0,1-.85-29.86,68.06,68.06,0,0,1,16-30.78"/></g><g id="Layer_3" data-name="Layer 3"><path class="cls-2" d="M55.63,110.58c-.06,4.34.08,9,.49,13.9q.26,3,.61,5.85A15.41,15.41,0,0,0,52.09,135a4.52,4.52,0,0,0,2.81.12,4.33,4.33,0,0,0,1.58-.85A8.16,8.16,0,0,0,58,135.81c.74.62,1.34,1.12,1.82,1s.89-1.32,1-3c.15-3-.38-4.72-1-8a49.62,49.62,0,0,1-.85-7,38.13,38.13,0,0,1,.12-5.12c.11-1.08.25-2,.37-2.68"/><path class="cls-2" d="M156.2,117.83c-.19,2.89-.32,5.9-.37,9-.07,4.5,0,8.78.24,12.8.72.8,1.46,1.65,2.2,2.56.94,1.17,1.79,2.32,2.56,3.42a9,9,0,0,1-7.32-2.69q3.48,3.27,3.05,3.9c-.33.5-2.45-.19-6.34-2.07"/></g><g id="Layer_5" data-name="Layer 5"><path class="cls-2" d="M58.94,113.93a23.88,23.88,0,0,1,2.93-9.88,22.37,22.37,0,0,1,9.26-8.65c1.43-.72,4.14-1.89,13.9-2.44a152.66,152.66,0,0,1,16.09,0c9.91.44,14.87.67,20.36,2a53.56,53.56,0,0,1,15.36,5.73c3.92,2.25,9.51,5.53,13.4,12a21.67,21.67,0,0,1,3.54,10.6,28.19,28.19,0,0,1-.24,4.15c-.44,4-1.2,5.9-2.08,10.11-.33,1.59-.85,4.47-1.19,7.3"/></g><g id="Layer_6" data-name="Layer 6"><path class="cls-2" d="M68.44,53.76c3.3-4.11,7.75-5.1,10-5.6,1.92-.43,8.2-1.83,14.14,2a15.86,15.86,0,0,1,7,9c1.66,6.05-1.24,11.06-2.31,12.92a16.6,16.6,0,0,1-8.29,7.68c-5.5,2.13-10.47.22-12.31-.49a17.72,17.72,0,0,1-7.93-5.73,16.42,16.42,0,0,1-3.53-9.39A15.66,15.66,0,0,1,68.44,53.76Z"/><path class="cls-2" d="M123.41,57.18a17.24,17.24,0,0,1,8.05-6.46,18.3,18.3,0,0,1,9.39-.74c3,.38,7.81,1,11.7,5a17,17,0,0,1,4.39,9,18.83,18.83,0,0,1-1.1,10.24,21.19,21.19,0,0,1-6.1,7.93,14.24,14.24,0,0,1-4.51,3.16c-2.74,1.11-5.15.84-7.92.49a22.06,22.06,0,0,1-9.87-3.17,16.18,16.18,0,0,1-6.59-7c-2.32-5.1-.82-10.17,0-12.92A18.88,18.88,0,0,1,123.41,57.18Z"/></g><g id="Layer_7" data-name="Layer 7"><path class="cls-2" d="M73.19,56.2a12,12,0,0,1,6.58-3.41c5.64-.71,9.61,3.71,9.88,4a12.33,12.33,0,0,1,2.8,9.27,11.42,11.42,0,0,1-3.29,7.07,11.79,11.79,0,0,1-8.53,3,12.5,12.5,0,0,1-8.17-3c-1-.87-4.35-4.16-4-8.9C68.72,60.17,71.57,57.64,73.19,56.2Z"/><path class="cls-2" d="M126.46,62.66c2.1-3.5,6.14-4.3,7.8-4.63a13,13,0,0,1,9.88,1.58,11.56,11.56,0,0,1,5.12,7.44,11.33,11.33,0,0,1-1.47,7.56,11.09,11.09,0,0,1-6.58,5.48c-2.93.76-5.39-.16-7.56-1s-4.43-1.6-6.21-3.9a11.23,11.23,0,0,1-2.2-6.71A10.26,10.26,0,0,1,126.46,62.66Z"/></g><g id="Layer_8" data-name="Layer 8"><path class="cls-2" d="M73.37,59.92a1.79,1.79,0,0,1,1-1.4,1.46,1.46,0,0,1,1-.25c.49.12.56.56,1.27,1.53s1.08,1.05,1.16,1.58a1.9,1.9,0,0,1-.73,1.71,1.67,1.67,0,0,1-1.46.36,1.64,1.64,0,0,1-.79-.79,4.93,4.93,0,0,1-.43-1.1C74,60.52,73.4,60.53,73.37,59.92Z"/><path class="cls-2" d="M79.35,68.09c.58-.4,1.21.52,2.5.42a4,4,0,0,0,2.43-1.4,4.62,4.62,0,0,0,1.47-2.5c.17-1-.21-1.6.24-2.07a1.42,1.42,0,0,1,1.34-.31,1.69,1.69,0,0,1,.92.74c.64,1,.31,2.27,0,3.41A6.9,6.9,0,0,1,87,69.24a6.53,6.53,0,0,1-4,2.08c-.86.17-2.81.55-3.59-.43A2.09,2.09,0,0,1,79,70C78.85,69.46,78.83,68.43,79.35,68.09Z"/><path class="cls-2" d="M128.47,65.16a1.18,1.18,0,0,1-.06-.73c.08-.23.24-.32,1.4-.91a2.06,2.06,0,0,1,1.1-.37,1.36,1.36,0,0,1,.61.24,3.09,3.09,0,0,1,1.1,3,2.59,2.59,0,0,1-.43,1,1.93,1.93,0,0,1-1.58.85A1.18,1.18,0,0,1,130,68c-.4-.33-.24-.68-.55-1.35S128.69,65.92,128.47,65.16Z"/><path class="cls-2" d="M136.7,74.91a1.51,1.51,0,0,1-.67-1.09,1.29,1.29,0,0,1,.43-.86c.61-.51,1.28,0,2.25-.24A3.66,3.66,0,0,0,140.66,71a4.4,4.4,0,0,0,1-2.56,3.28,3.28,0,0,1,.12-1.7c.08-.16.29-.61.67-.68s.93.52,1.1.74a4.61,4.61,0,0,1,.67,3.29,6.1,6.1,0,0,1-2.26,4C140.29,75.38,137.83,75.8,136.7,74.91Z"/><path class="cls-2" d="M103.91,86.55c0-.76,1.33-1.44,2.44-1.34,1,.09,2.05.8,2,1.53S107.06,88.07,106,88,103.89,87.28,103.91,86.55Z"/></g><rect class="cls-1" x="12.35" y="14.02" width="198.97" height="303.18"/><path class="cls-2" d="M42.84,228.44a5.26,5.26,0,0,1-3.17,1.83c-2.5.3-4.53-1.83-5.12-2.44a11.48,11.48,0,0,1-2.81-8.05c.12-5.08,3.32-9.31,4-10.24a30.28,30.28,0,0,0,3.41-5.36,5.76,5.76,0,0,0,.85-3.54,5.85,5.85,0,0,0-1.83-3.17,8.37,8.37,0,0,0-2.92-1.95,15,15,0,0,0,4.75-2.8A14.67,14.67,0,0,0,42,190.65a22.22,22.22,0,0,1,1.59,1.7,25.84,25.84,0,0,1,2.31,3.3"/><path class="cls-2" d="M166.16,242.44a8.39,8.39,0,0,0,3.69,3.06,7.12,7.12,0,0,0,5.37-.73,10,10,0,0,0,4.39-5.48A16.29,16.29,0,0,0,180.7,234c.32-3.83.65-7.6-.61-12.43a33.06,33.06,0,0,0-4.39-9.75,34.11,34.11,0,0,0-2.56-3.53,9.39,9.39,0,0,1,1.71-3.91,9.53,9.53,0,0,1,5.24-3.41,19.47,19.47,0,0,0-3.9-1.95c-2.08-.76-2.86-.62-3.29-.49a4.85,4.85,0,0,0-1.83,1.34,21.07,21.07,0,0,0-2.8,3.05"/><g id="Layer_2-2-3" data-name="Layer 2-2"><path class="cls-2" d="M67.81,183.34c9.62-1.81,14.93-2.72,16.84-2.93a128.18,128.18,0,0,1,25.35-.12,137,137,0,0,1,35.47,8.29,72.73,72.73,0,0,1,11.8,5.68"/><path class="cls-2" d="M61.53,265.77A41.43,41.43,0,0,1,57.34,262a39.37,39.37,0,0,1-2.88-3.76,71.12,71.12,0,0,1-10.77-25.49c-1.42-6.53-3.43-15.74-1-27.31a55.54,55.54,0,0,1,5.12-14.14,33.3,33.3,0,0,1,2.81-2.07,33.82,33.82,0,0,1,8.9-3.87"/><path class="cls-2" d="M127.69,278.87a94.13,94.13,0,0,1-13.91,1.37,82,82,0,0,1-15.07-1.31c-1.55-.28-5.24-1-10.67-2.53"/><path class="cls-2" d="M161.82,197a54.49,54.49,0,0,1,6.33,5.73,63.93,63.93,0,0,1,.85,29.86A68,68,0,0,1,153,263.36"/></g><g id="Layer_3-2" data-name="Layer 3"><path class="cls-2" d="M162.43,217.09c0-4.35-.08-9-.49-13.9q-.25-3-.61-5.85a15.26,15.26,0,0,0,4.63-4.63,4.37,4.37,0,0,0-4.39.73,8.14,8.14,0,0,0-1.46-1.59c-.74-.61-1.34-1.11-1.83-1s-.88,1.32-1,3.05c-.16,3,.38,4.72,1,8a46.8,46.8,0,0,1,.85,6.95A34.92,34.92,0,0,1,159,214c-.1,1.08-.24,2-.36,2.68"/><path class="cls-2" d="M61.86,209.83c.19-2.88.32-5.89.37-9,.07-4.49,0-8.77-.25-12.79-.72-.8-1.45-1.65-2.19-2.56-.95-1.18-1.8-2.32-2.56-3.42a9,9,0,0,1,7.31,2.68q-3.48-3.25-3-3.9c.33-.5,2.44.2,6.33,2.08"/></g><g id="Layer_5-2" data-name="Layer 5"><path class="cls-2" d="M159.11,213.74a23.65,23.65,0,0,1-2.92,9.87,22.37,22.37,0,0,1-9.27,8.66c-1.42.72-4.13,1.89-13.89,2.44a152.66,152.66,0,0,1-16.09,0c-9.92-.45-14.87-.67-20.36-2A53.76,53.76,0,0,1,81.22,227c-3.93-2.25-9.51-5.53-13.41-11.95a21.83,21.83,0,0,1-3.53-10.6,25.69,25.69,0,0,1,.24-4.15c.43-4,1.19-5.9,2.07-10.12.33-1.58.85-4.46,1.19-7.29"/></g><g id="Layer_6-2" data-name="Layer 6"><path class="cls-2" d="M149.62,273.9c-3.3,4.12-7.75,5.11-10,5.61-1.91.43-8.19,1.83-14.14-1.95a15.9,15.9,0,0,1-7-9c-1.65-6.05,1.25-11.07,2.32-12.92a16.6,16.6,0,0,1,8.29-7.68c5.49-2.13,10.47-.22,12.31.49a17.7,17.7,0,0,1,7.92,5.73,16.26,16.26,0,0,1,3.54,9.38A15.7,15.7,0,0,1,149.62,273.9Z"/><path class="cls-2" d="M94.64,270.49a17.19,17.19,0,0,1-8,6.46,18.17,18.17,0,0,1-9.39.73c-2.95-.38-7.82-1-11.7-5a16.81,16.81,0,0,1-4.39-9,18.73,18.73,0,0,1,1.1-10.24,21.2,21.2,0,0,1,6.09-7.93,14.39,14.39,0,0,1,4.51-3.17c2.74-1.1,5.16-.83,7.93-.48A22.06,22.06,0,0,1,90.62,245,16.2,16.2,0,0,1,97.2,252c2.33,5.11.82,10.17,0,12.92A18.65,18.65,0,0,1,94.64,270.49Z"/></g><g id="Layer_7-2" data-name="Layer 7"><path class="cls-2" d="M144.86,271.47a11.92,11.92,0,0,1-6.58,3.41c-5.63.71-9.6-3.71-9.87-4a12.4,12.4,0,0,1-2.81-9.27,11.45,11.45,0,0,1,3.3-7.07,11.73,11.73,0,0,1,8.53-3,12.5,12.5,0,0,1,8.17,3c1,.87,4.35,4.16,4,8.9C149.33,267.5,146.48,270,144.86,271.47Z"/><path class="cls-2" d="M91.6,265c-2.1,3.49-6.15,4.3-7.81,4.63a13,13,0,0,1-9.87-1.59,11.53,11.53,0,0,1-5.12-7.43,11.34,11.34,0,0,1,1.46-7.56,11.06,11.06,0,0,1,6.59-5.48c2.93-.77,5.39.16,7.55,1s4.44,1.6,6.22,3.9a11.25,11.25,0,0,1,2.19,6.71A10.16,10.16,0,0,1,91.6,265Z"/></g><g id="Layer_8-2" data-name="Layer 8"><path class="cls-2" d="M144.68,267.75a1.78,1.78,0,0,1-1,1.4,1.47,1.47,0,0,1-1,.25c-.5-.12-.57-.56-1.28-1.53s-1.08-1.06-1.16-1.58a1.93,1.93,0,0,1,.74-1.71,1.63,1.63,0,0,1,1.46-.36,1.6,1.6,0,0,1,.79.79,6.33,6.33,0,0,1,.43,1.09C144.08,267.15,144.66,267.14,144.68,267.75Z"/><path class="cls-2" d="M138.71,259.58c-.59.4-1.21-.53-2.5-.42a4,4,0,0,0-2.44,1.4,4.64,4.64,0,0,0-1.46,2.5c-.17,1,.21,1.6-.24,2.07a1.41,1.41,0,0,1-1.35.3,1.58,1.58,0,0,1-.91-.73c-.65-1-.31-2.28,0-3.41a6.69,6.69,0,0,1,1.28-2.87,6.49,6.49,0,0,1,4-2.07c.87-.17,2.81-.55,3.6.43a2,2,0,0,1,.36.85C139.2,258.21,139.22,259.23,138.71,259.58Z"/><path class="cls-2" d="M89.58,262.51a1.11,1.11,0,0,1,.07.73c-.08.23-.24.32-1.41.91a2,2,0,0,1-1.09.37,1.3,1.3,0,0,1-.61-.25,3,3,0,0,1-1.1-3,2.43,2.43,0,0,1,.43-1,1.93,1.93,0,0,1,1.58-.85,1.25,1.25,0,0,1,.61.24c.4.32.24.68.55,1.34S89.36,261.74,89.58,262.51Z"/><path class="cls-2" d="M81.36,252.76a1.54,1.54,0,0,1,.67,1.09,1.29,1.29,0,0,1-.43.86c-.61.51-1.28,0-2.26.24a3.69,3.69,0,0,0-2,1.71,4.47,4.47,0,0,0-1,2.56,3.4,3.4,0,0,1-.12,1.7c-.08.16-.29.61-.67.67s-.93-.51-1.1-.73a4.61,4.61,0,0,1-.67-3.29,6.1,6.1,0,0,1,2.25-4C77.77,252.29,80.23,251.87,81.36,252.76Z"/><path class="cls-2" d="M114.15,241.11c0,.77-1.33,1.45-2.44,1.35-1-.1-2-.8-2-1.53s1.3-1.33,2.31-1.28S114.16,240.39,114.15,241.11Z"/></g></g></g></svg>