<svg xmlns="http://www.w3.org/2000/svg" viewBox="0 0 329.07 258.47"><defs><style>.cls-1,.cls-2{fill:none;stroke:#000;stroke-miterlimit:10;}.cls-1{stroke-width:5px;}.cls-2{stroke-width:4px;}</style></defs><g id="Layer_2" data-name="Layer 2"><g id="Layer_2-2" data-name="Layer 2"><path class="cls-1" d="M205.71,26.19a27.61,27.61,0,0,1,12.87-10.33c6.1-2.32,11.3-1.64,15-1.17,4.72.61,12.5,1.61,18.72,8a26.89,26.89,0,0,1,7,14.43,30,30,0,0,1-1.75,16.37c-2.5,6.07-6.36,9.58-9.75,12.67-2.55,2.32-4.32,3.9-7.21,5.07-4.38,1.76-8.24,1.33-12.67.78-4.1-.52-9.76-1.22-15.79-5.07-2.73-1.75-7.7-4.92-10.52-11.11-3.72-8.17-1.31-16.27,0-20.66A30,30,0,0,1,205.71,26.19Z"/><path class="cls-1" d="M210.58,35c3.36-5.59,9.83-6.88,12.48-7.4,2.14-.43,9.15-1.82,15.79,2.53,1.34.88,6.91,4.67,8.18,11.89a18,18,0,0,1-2.34,12.08c-.8,1.41-4,7.08-10.52,8.77-4.69,1.22-8.63-.26-12.09-1.55S215,58.72,212.14,55a18,18,0,0,1-3.51-10.72A16.31,16.31,0,0,1,210.58,35Z"/><path class="cls-1" d="M213.8,39a1.86,1.86,0,0,1-.1-1.17c.13-.37.38-.51,2.24-1.46a3.28,3.28,0,0,1,1.76-.59,2.3,2.3,0,0,1,1,.39A4.9,4.9,0,0,1,220.43,41a4,4,0,0,1-.69,1.56,3.09,3.09,0,0,1-2.53,1.37,1.92,1.92,0,0,1-1-.39c-.64-.52-.39-1.08-.88-2.15S214.15,40.18,213.8,39Z"/><path class="cls-1" d="M227,54.55a2.4,2.4,0,0,1-1.08-1.75,2,2,0,0,1,.69-1.37c1-.82,2,0,3.6-.39a5.84,5.84,0,0,0,3.12-2.73,7.11,7.11,0,0,0,1.56-4.09c0-1-.28-1.74.19-2.73.13-.25.47-1,1.08-1.07.77-.13,1.48.82,1.75,1.17a7.32,7.32,0,0,1,1.07,5.26,9.73,9.73,0,0,1-3.6,6.43C232.69,55.3,228.76,56,227,54.55Z"/><path class="cls-2" d="M163.6,80.32a190.08,190.08,0,0,1-76.71-22A190,190,0,0,1,30.21,11.92a67.28,67.28,0,0,0-6.84,45.93c5.21,24.32,22.37,37.2,26.39,40.06a28.88,28.88,0,0,1-13.2.49,29.21,29.21,0,0,1-15.14-8.31,65.19,65.19,0,0,0,50.81,64.5A24.75,24.75,0,0,1,60.51,160a25.33,25.33,0,0,1-16.62-3.14A71.8,71.8,0,0,0,105,201.5,148.29,148.29,0,0,1,8.23,228.37c65.09,39.21,146.28,37.21,206.18-4.89,79.8-56.08,78.41-152.82,78.18-160.19a62.12,62.12,0,0,0,31.27-32.81,41.19,41.19,0,0,1-17.1,9.29,41.3,41.3,0,0,1-18.08.64,53.27,53.27,0,0,0,19.55-17.25A52.72,52.72,0,0,0,316,5.08a141.84,141.84,0,0,1-18.56,8.79,142.18,142.18,0,0,1-21,6.35A67.54,67.54,0,0,0,163.6,80.32Z"/></g></g></svg>