<svg xmlns="http://www.w3.org/2000/svg" viewBox="0 0 299.71 167.48"><defs><style>.cls-1{fill:none;stroke:#000;stroke-miterlimit:10;stroke-width:4px;}</style></defs><g id="Layer_2" data-name="Layer 2"><g id="Layer_2-2" data-name="Layer 2"><path class="cls-1" d="M152.59,39.63a8.41,8.41,0,0,0-3.68-3.05,7.15,7.15,0,0,0-5.34.73,10,10,0,0,0-4.36,5.46,16.12,16.12,0,0,0-1.1,5.22"/><g id="Layer_2-2-2" data-name="Layer 2-2"><path class="cls-1" d="M256.73,16.41a41,41,0,0,1,4.17,3.79A37.6,37.6,0,0,1,263.77,24a69.08,69.08,0,0,1,9.73,21.34"/><path class="cls-1" d="M190.88,3.37A94.3,94.3,0,0,1,204.72,2a81.37,81.37,0,0,1,15,1.31c1.54.27,5.21,1,10.61,2.51"/><path class="cls-1" d="M151.1,44.3a68.37,68.37,0,0,1,14.64-25.49"/></g><g id="Layer_6" data-name="Layer 6"><path class="cls-1" d="M169.05,8.31c3.29-4.09,7.72-5.08,9.95-5.58,1.91-.42,8.16-1.81,14.08,1.95a15.76,15.76,0,0,1,6.91,9c1.65,6-1.23,11-2.3,12.86a16.54,16.54,0,0,1-8.25,7.65c-5.47,2.12-10.42.22-12.26-.49A17.6,17.6,0,0,1,169.3,28a16.22,16.22,0,0,1-3.52-9.34A15.61,15.61,0,0,1,169.05,8.31Z"/><path class="cls-1" d="M223.77,11.71a17.29,17.29,0,0,1,8-6.43,18.2,18.2,0,0,1,9.34-.73c2.94.38,7.79,1,11.65,5a16.74,16.74,0,0,1,4.37,9,18.72,18.72,0,0,1-1.09,10.19A21,21,0,0,1,250,36.58a14.28,14.28,0,0,1-4.49,3.16c-2.73,1.1-5.13.83-7.88.48a21.78,21.78,0,0,1-9.83-3.15,16.09,16.09,0,0,1-6.55-6.92c-2.32-5.08-.82-10.12,0-12.86A18.77,18.77,0,0,1,223.77,11.71Z"/></g><g id="Layer_7" data-name="Layer 7"><path class="cls-1" d="M173.79,10.74a11.85,11.85,0,0,1,6.55-3.4c5.61-.7,9.55,3.7,9.82,4a12.31,12.31,0,0,1,2.8,9.22,11.43,11.43,0,0,1-3.28,7,11.72,11.72,0,0,1-8.49,3,12.47,12.47,0,0,1-8.13-3c-1-.86-4.34-4.14-4-8.86C169.34,14.69,172.17,12.17,173.79,10.74Z"/><path class="cls-1" d="M226.81,17.17c2.09-3.48,6.11-4.28,7.76-4.61a13,13,0,0,1,9.83,1.58,11.5,11.5,0,0,1,5.1,7.4A11.23,11.23,0,0,1,248,29.06a11,11,0,0,1-6.55,5.46c-2.92.76-5.37-.16-7.52-1s-4.42-1.59-6.19-3.88A11.24,11.24,0,0,1,225.59,23,10.19,10.19,0,0,1,226.81,17.17Z"/></g><g id="Layer_8" data-name="Layer 8"><path class="cls-1" d="M174,14.44a1.73,1.73,0,0,1,1-1.39,1.44,1.44,0,0,1,1-.25c.49.12.57.56,1.27,1.52s1.08,1,1.15,1.58a1.91,1.91,0,0,1-.72,1.7,1.34,1.34,0,0,1-2.25-.43,5.57,5.57,0,0,1-.42-1.09C174.57,15,174,15.05,174,14.44Z"/><path class="cls-1" d="M179.91,22.57c.59-.39,1.21.53,2.49.43a4,4,0,0,0,2.43-1.4,4.64,4.64,0,0,0,1.45-2.49c.17-1-.21-1.59.25-2.06a1.39,1.39,0,0,1,1.33-.3,1.58,1.58,0,0,1,.91.73c.64,1,.31,2.26,0,3.39a6.72,6.72,0,0,1-1.27,2.85,6.47,6.47,0,0,1-4,2.07c-.86.17-2.79.55-3.58-.43a2,2,0,0,1-.36-.85C179.42,23.94,179.4,22.92,179.91,22.57Z"/><path class="cls-1" d="M228.81,19.66a1.18,1.18,0,0,1-.06-.73c.08-.23.23-.32,1.39-.91.52-.26.79-.4,1.1-.36a1.38,1.38,0,0,1,.6.24,3,3,0,0,1,1.09,3,2.47,2.47,0,0,1-.42,1,1.89,1.89,0,0,1-1.58.85,1.1,1.1,0,0,1-.6-.24c-.4-.32-.24-.67-.55-1.33S229,20.42,228.81,19.66Z"/><path class="cls-1" d="M237,29.37a1.51,1.51,0,0,1-.67-1.1,1.29,1.29,0,0,1,.43-.85c.61-.51,1.27,0,2.24-.24a3.62,3.62,0,0,0,1.94-1.7,4.46,4.46,0,0,0,1-2.54,3.39,3.39,0,0,1,.12-1.7c.08-.16.29-.61.67-.67s.93.51,1.09.73a4.56,4.56,0,0,1,.67,3.27,6.1,6.1,0,0,1-2.24,4C240.57,29.83,238.12,30.25,237,29.37Z"/><path class="cls-1" d="M204.36,41c0-.76,1.32-1.44,2.43-1.33,1,.09,2,.79,2,1.51s-1.29,1.33-2.31,1.28S204.34,41.68,204.36,41Z"/></g><path class="cls-1" d="M145.35,45.29c18.94-1.63,39.38-2.7,61.13-2.88s42.38.56,61.42,1.89c1.89,0,14.76.14,22.72,10.27a26.22,26.22,0,0,1,5.13,11.72c1.15,11.63,1.9,24.38,1.95,38.11a400.39,400.39,0,0,1-1.95,41,20,20,0,0,1-3.34,9.17c-4.82,7-12.66,8.42-14.25,8.66-21.8,1.45-45.06,2.28-69.63,2.2-22.18-.07-43.28-.88-63.18-2.2a24,24,0,0,1-15.73-8.06A22.92,22.92,0,0,1,124.74,145c-1.18-12.38-1.94-25.95-2-40.56,0-15.07.75-29.06,2-41.77a23.83,23.83,0,0,1,8.79-13A23.47,23.47,0,0,1,145.35,45.29Z"/><polygon class="cls-1" points="136.71 63.36 173.97 63.36 173.97 76.36 161.38 76.36 161.14 142.27 149.49 142.27 149.41 76.09 136.71 75.6 136.71 63.36"/><path class="cls-1" d="M172.3,83.88h10.83v48.54A5,5,0,0,0,186,134c3.07.42,5.18-2.64,5.32-2.86a6.58,6.58,0,0,0,1-2.44V83.88h11.24V143H192.33v-6a14.87,14.87,0,0,1-8,6.35,9.62,9.62,0,0,1-6.52.16c-4.07-1.55-5.36-5.9-5.53-6.51Z"/><path class="cls-1" d="M212.36,63.36v78.91H223v-4.48a39.22,39.22,0,0,0,4.72,2.61c4.53,2.11,7.07,4.07,10.59,2.77,4.39-1.63,5.81-5.86,6.26-11.4V95.28c-.67-6.17-3.29-11.6-7.08-12-5.54-.65-7.5.64-9.28,1.77A56.72,56.72,0,0,0,223,89.26q.08-12.95.16-25.9Z"/><path class="cls-1" d="M223.11,95.28v36a8,8,0,0,0,6.51,1.46,7,7,0,0,0,2.77-1.46V95.77a5,5,0,0,0-2.11-2.28C228.2,92.41,225.28,93.09,223.11,95.28Z"/><path class="cls-1" d="M262,114.83h21.33V96.59a16.05,16.05,0,0,0-31.76,0v32.24a16,16,0,0,0,31.76,0v-7.16l-10.91.32v4.73c.36,4.27-2.42,7.4-4.72,7.49s-5.61-3.09-5.22-7.66Z"/><path class="cls-1" d="M262.2,106.2h10.26V96.1a6,6,0,0,0-5.21-2.93,6.29,6.29,0,0,0-5.05,2.93Z"/><polygon class="cls-1" points="2.75 63.36 15.94 63.36 23.76 93.82 32.07 63.36 44.61 63.36 29.79 110.59 30.11 143.59 18.06 143.59 18.06 110.59 2.75 63.36"/><path class="cls-1" d="M42.49,95.45v32.41a16,16,0,0,0,16.12,16.61,15.94,15.94,0,0,0,15.15-16.61V95.45a15.83,15.83,0,0,0-31.27,0Z"/><path class="cls-1" d="M52.91,97.56a5.22,5.22,0,0,1,10.43,0v31.76a5.22,5.22,0,1,1-10.43,0Z"/><path class="cls-1" d="M82.23,83.88H93.14V131.6c.19.44,1.12,2.53,2.93,2.93,2.24.5,5.33-1.67,6.19-5.7v-45h10.91v58.39H102.26l-.16-5.94c-2.1,5.28-7.42,8.2-12.22,7.16a10.66,10.66,0,0,1-7.65-7.33Z"/></g></g></svg>