<svg xmlns="http://www.w3.org/2000/svg" viewBox="0 0 107 124.04"><defs><style>.cls-1{fill:none;stroke-width:3px;}.cls-1,.cls-2{stroke:#fff;stroke-miterlimit:10;}.cls-2{fill:#fff;}</style></defs><g id="Layer_2" data-name="Layer 2"><g id="Layer_1-2" data-name="Layer 1"><polyline class="cls-1" points="1.5 116.21 1.5 88.54 27.5 88.54"/><polyline class="cls-1" points="79.87 88.54 105.5 88.54 105.5 116.21"/><path class="cls-1" d="M41.5,67.54c-.81,9.58-3.69,19.69-14,21"/><path class="cls-1" d="M66.5,66.54c.81,9.58,3.06,20.7,13.37,22"/><path class="cls-2" d="M105.5,116.21v7.33H1.5v-7.33m0,0h104"/><path class="cls-2" d="M40.5,22.54,50,32,65.5,16.54l4.59,4.07L50,40.15,36.5,26.54Zm15,47c5.86-.62,8.33-1.57,11-3,0-3-1.29-8.14,0-12,1.44-4.32,5.54-8.67,7-10,7.34-6.69,8.07-19.72,2-31a24,24,0,0,0-21-13c-2.52-.21-10.28.15-19,7-7.41,5.82-10.69,14-9,23,1.5,8,7.91,14.36,10,17a28.39,28.39,0,0,1,5,10c1,4,0,9,0,11C44.53,69.65,48.28,70.3,55.5,69.54Z"/></g></g></svg>