<svg xmlns="http://www.w3.org/2000/svg" viewBox="0 0 248.03 147.62"><defs><style>.cls-1{fill:#fff;stroke:#fff;stroke-miterlimit:10;}</style></defs><g id="Layer_2" data-name="Layer 2"><g id="Layer_1-2" data-name="Layer 1"><path class="cls-1" d="M246.17,143.05c-11.72-9.61-55.94-43.53-121.67-43-67.12.54-111.39,36.65-122.64,46.41l.57-10.41c11.24-9.76,55.51-45.87,122.64-46.42,65.72-.53,109.94,33.39,121.66,43Z"/><polyline class="cls-1" points="2.43 135.26 1.86 47.64 16.04 47.64 16.04 125.37"/><polyline class="cls-1" points="232.55 122.12 231.99 50.49 246.16 50.49 246.16 132.23"/><polyline class="cls-1" points="165.35 93.49 164.79 17.86 178.97 17.86 178.97 96.59"/><polyline class="cls-1" points="70.21 98.79 69.64 20.16 83.82 20.16 83.82 94.89"/><circle class="cls-1" cx="8.95" cy="38.88" r="8.45"/><circle class="cls-1" cx="239.08" cy="41.33" r="8.45"/><circle class="cls-1" cx="171.88" cy="8.95" r="8.45"/><circle class="cls-1" cx="76.73" cy="11.06" r="8.45"/><rect class="cls-1" x="83.67" y="28.89" width="82" height="10"/><rect class="cls-1" x="82.67" y="49.89" width="82" height="10"/><rect class="cls-1" x="83.67" y="72.89" width="82" height="10"/><polygon class="cls-1" points="70.67 38.88 14.67 64.89 14.67 54.88 70.67 28.89 70.67 38.88"/><polyline class="cls-1" points="70.67 62.11 14.67 88.11 14.67 78.11 70.67 52.11"/><polyline class="cls-1" points="70.67 86.11 14.67 112.11 14.67 102.11 70.67 76.11"/><polygon class="cls-1" points="177.67 39.66 233.67 65.66 233.67 55.66 177.67 29.66 177.67 39.66"/><polyline class="cls-1" points="177.67 62.89 233.67 88.89 233.67 78.89 177.67 52.89"/><polyline class="cls-1" points="177.67 86.89 233.67 112.89 233.67 102.89 177.67 76.89"/></g></g></svg>