<svg xmlns="http://www.w3.org/2000/svg" viewBox="0 0 181.36 121.63"><defs><style>.cls-1{fill:#fff;}.cls-1,.cls-2{stroke:#fff;}.cls-2{fill:none;stroke-width:4px;}</style></defs><g id="Layer_2" data-name="Layer 2"><g id="Layer_1-2" data-name="Layer 1"><path class="cls-1" d="M95.69,89.52a22.88,22.88,0,0,1-1.5,4.41A33.43,33.43,0,0,0,90.4,92c-1.37-.59-2.91-1.18-4.57-1.89C77.2,86.64,64.9,81.2,51.38,65,39.83,51.2,30.17,39.61,24.89,29.92A160.23,160.23,0,0,0,46.57,70.36C67,97.48,79.17,100,87.13,102.17c-13.79,8.32-43.83,2.72-66.57-20.26C-4.12,57,.93.55.93.55s47.93,4.89,72.6,29.84A85.58,85.58,0,0,1,90.68,55.06C96.44,67.84,97.93,80.33,95.69,89.52Zm84.75-89S132.5,5.44,107.83,30.39A84.8,84.8,0,0,0,90.68,55.06c5.76,12.78,7.25,25.27,5,34.46,8.71-4.22,20.77-10.57,32.24-24,11.79-13.76,20.74-26,25.54-35.59-2.44,9.73-6.74,24.51-17.34,39.45-15.85,22.31-33.7,27.12-41.31,33.15,14,7.81,43.56,2,66-20.61C185.48,57,180.44.55,180.44.55Z"/><path class="cls-2" d="M127.93,65.51C116.46,79,104.4,85.3,95.69,89.52a22.88,22.88,0,0,1-1.5,4.41A33.43,33.43,0,0,0,90.4,92c-1.37-.59-2.91-1.18-4.57-1.89C77.2,86.64,64.9,81.2,51.38,65,39.83,51.2,30.17,39.61,24.89,29.92A160.23,160.23,0,0,0,46.57,70.36C67,97.48,79.17,100,87.13,102.17l-.27,17.46h8V102.52c7.61-6,25.46-10.84,41.31-33.15,10.6-14.94,14.9-29.72,17.34-39.45C148.67,39.53,139.72,51.75,127.93,65.51Z"/></g></g></svg>