<svg xmlns="http://www.w3.org/2000/svg" viewBox="0 0 283 232"><defs><style>.cls-1{fill:#fff;}</style></defs><g id="Layer_2" data-name="Layer 2"><g id="Layer_2-2" data-name="Layer 2"><path class="cls-1" d="M201.12,188.84c-10.29-11.85-10.28-28.38-10.25-31.05l11.1-.09c0,1.84.22,12.41,6.82,19.75a18.19,18.19,0,0,0,8.92,5.59l-.27-32.55c-14.54-3.2-22.93-20.21-20.25-33.8,1.94-9.87,9.67-17.7,19.2-19.2l-.12-14.06,9.49-.08.12,14.7a24.23,24.23,0,0,1,14.48,7c6.88,6.62,9.19,15.37,9.85,18.32l-10.8.09a22.48,22.48,0,0,0-5.63-9.86,15,15,0,0,0-7.8-4.18l.27,32.55c15.31,0,26.27,16.79,24.68,32.34-1.3,12.75-11,23.81-23.1,24.25v14.16l-9.87.08-.12-14.15A28.54,28.54,0,0,1,201.12,188.84Zm8.25-75.08a17,17,0,0,0-3.26,8.52c0,.87-.23,6.8,3.42,11.29a10.18,10.18,0,0,0,7.8,4l-.23-28.14A10.62,10.62,0,0,0,209.37,113.76Zm27.18,66.29c3.87-4.43,4.23-10.24,4.28-11.39a19.52,19.52,0,0,0-4.47-11.25,11.7,11.7,0,0,0-8.91-4.17l.26,31.06A11.58,11.58,0,0,0,236.55,180.05ZM283,232V0L0,232Z"/></g></g></svg>