<svg xmlns="http://www.w3.org/2000/svg" viewBox="0 0 175.53 145.02"><defs><style>.cls-1{fill:#fff;stroke:#fff;}</style></defs><g id="Layer_2" data-name="Layer 2"><g id="Layer_1-2" data-name="Layer 1"><path class="cls-1" d="M133.05,53.91V41.68h-97C30.52,41.68,26,37.86,26,33.13V27.27c0-4.72,4.52-8.56,10.08-8.56h97V6c0-4.88,6.9-7.34,11-3.95l29,23.94a5,5,0,0,1,0,7.9l-29,24C140,61.26,133.05,58.79,133.05,53.91Z"/><path class="cls-1" d="M42.77,139V126.77H140.4c5.6,0,10.15-3.82,10.15-8.55v-5.86c0-4.72-4.55-8.56-10.15-8.56H42.77V91.11c0-4.88-7-7.35-11.09-4L2.48,111.1a4.93,4.93,0,0,0,0,7.9L31.68,143C35.82,146.35,42.77,143.88,42.77,139Z"/></g></g></svg>