<svg xmlns="http://www.w3.org/2000/svg" viewBox="0 0 111 150"><defs><style>.cls-1{fill:#fff;stroke:#fff;stroke-miterlimit:10;}</style></defs><g id="Layer_2" data-name="Layer 2"><g id="Layer_1-2" data-name="Layer 1"><path class="cls-1" d="M110.5,149.5H.5V.5h110Zm-9-132a4.94,4.94,0,0,0-3-4h-85a4.94,4.94,0,0,0-3,4,5,5,0,0,0,3,5h85A5,5,0,0,0,101.5,17.5Zm.27,24a4.94,4.94,0,0,0-3-4h-85a4.94,4.94,0,0,0-3,4,5,5,0,0,0,3,5h85A5,5,0,0,0,101.77,41.5Zm0,22a4.94,4.94,0,0,0-3-4h-85a4.94,4.94,0,0,0-3,4,5,5,0,0,0,3,5h85A5,5,0,0,0,101.77,63.5Zm0,22a4.94,4.94,0,0,0-3-4h-85a4.94,4.94,0,0,0-3,4,5,5,0,0,0,3,5h85A5,5,0,0,0,101.77,85.5Zm0,22a4.94,4.94,0,0,0-3-4h-85a4.94,4.94,0,0,0-3,4,5,5,0,0,0,3,5h85A5,5,0,0,0,101.77,107.5Zm0,24a4.94,4.94,0,0,0-3-4h-85a4.94,4.94,0,0,0-3,4,5,5,0,0,0,3,5h85A5,5,0,0,0,101.77,131.5Z"/></g></g></svg>