<svg xmlns="http://www.w3.org/2000/svg" viewBox="0 0 175.92 124.1"><defs><style>.cls-1{fill:#fff;stroke:#fff;stroke-miterlimit:10;}</style></defs><g id="Layer_2" data-name="Layer 2"><g id="Layer_1-2" data-name="Layer 1"><path class="cls-1" d="M23.07,3.41C42,1.78,62.45.71,84.2.53s42.38.56,61.42,1.89c1.89,0,14.76.14,22.72,10.27a26.22,26.22,0,0,1,5.13,11.72c1.15,11.63,1.9,24.38,1.95,38.11a403.26,403.26,0,0,1-1.95,41,20.18,20.18,0,0,1-3.34,9.17c-4.82,7-12.66,8.42-14.25,8.66-21.8,1.45-45.06,2.28-69.63,2.2-22.19-.07-43.28-.88-63.18-2.2a24,24,0,0,1-15.73-8.06,22.85,22.85,0,0,1-4.89-10.26C1.28,90.7.52,77.13.5,62.52c0-15.07.74-29.06,2-41.77A23.83,23.83,0,0,1,11.25,7.8,23.47,23.47,0,0,1,23.07,3.41Zm96.17,59-47-24.57V87Z"/></g></g></svg>