<svg xmlns="http://www.w3.org/2000/svg" viewBox="0 0 1702.3 352.5"><defs><style>.cls-1{fill:#1fde4e;}.cls-2{fill:#e190dc;}.cls-3{fill:#fb40ee;}.cls-4{fill:#ae1a63;}.cls-5{fill:#ff2ad8;}.cls-6{fill:#ff5006;}.cls-7{fill:#26d8ac;}.cls-8{fill:#39b102;}</style></defs><g id="Layer_2" data-name="Layer 2"><g id="Layer_1-2" data-name="Layer 1"><path class="cls-1" d="M972.9,176.3A176.22,176.22,0,0,1,796.7,352.5c-32.4,0-63.2-8.1-88.9-24.1-9.9-6.1-13.3-12.2-9.3-20.8,9.3-20,98-133.2,97.3-133.3,0,0-89.5,71.9-129.9,97.8-11.9,7.7-16.7.1-17.2-.6-13.2-17.2-28.2-62.6-28.2-95.3A176.22,176.22,0,0,1,796.7,0C894,0,972.9,78.9,972.9,176.3Z"/><path class="cls-2" d="M815.4,95.9a279.58,279.58,0,0,1-2.3,37.1c-8.6,11.2-14.6,21.3-17.2,28.9-2.7-7.6-8.6-17.6-17.1-28.7a284.3,284.3,0,0,1-2.3-37.4c0-43.4,19.5-78.7,19.5-78.7S815.4,52.5,815.4,95.9Z"/><path class="cls-2" d="M787.1,165.9c-7.1-3.5-18.4-6.4-32.2-8.3a292.63,292.63,0,0,1-28.4-25.1c-30.7-30.7-41.9-69.4-41.9-69.4S723.3,74.3,754,105a277.4,277.4,0,0,1,24.9,28.3C780.7,147.2,783.6,158.6,787.1,165.9Z"/><path class="cls-2" d="M783.6,174.6c-7.5,2.5-17.7,8.4-29,17h0a288.53,288.53,0,0,1-37.8,2.4c-43.4,0-78.7-19.5-78.7-19.5S673.3,155,716.8,155a293.33,293.33,0,0,1,38.1,2.4C766,166.1,776.1,172.1,783.6,174.6Z"/><path class="cls-2" d="M786.9,183.4c-3.5,7.2-6.4,18.5-8.2,32.3a284.59,284.59,0,0,1-25.3,28.7c-30.7,30.7-69.4,41.9-69.4,41.9s11.2-38.7,41.9-69.4a284.59,284.59,0,0,1,28.7-25.3h0C768.4,189.8,779.7,186.9,786.9,183.4Z"/><path class="cls-2" d="M815.2,253.6c0,43.4-19.5,78.7-19.5,78.7s-19.4-35.3-19.4-78.7a288.53,288.53,0,0,1,2.4-37.8c8.6-11.4,14.6-21.6,17.1-29.1,2.5,7.6,8.4,17.8,17.1,29.1A308.15,308.15,0,0,1,815.2,253.6Z"/><path class="cls-2" d="M907.4,286.3s-38.7-11.2-69.4-41.9a284.59,284.59,0,0,1-25.3-28.7c-1.8-13.4-4.6-24.4-7.9-31.6,7.3,3.5,18.8,6.3,32.8,8.2a294.45,294.45,0,0,1,27.8,24.6C896.3,247.7,907.4,286.3,907.4,286.3Z"/><path class="cls-2" d="M953.3,175.2s-35.2,19.5-78.7,19.5a276.45,276.45,0,0,1-36.9-2.3c-11.7-9-22.3-15.2-30-17.7,7.3-2.4,17.2-8.1,28.2-16.4h0a284.26,284.26,0,0,1,38.8-2.5C918.1,155.7,953.3,175.2,953.3,175.2Z"/><path class="cls-2" d="M907.4,62.9s-11.2,38.7-41.9,69.4a299.36,299.36,0,0,1-29.6,26h0c-13.3,1.9-24.2,4.7-31.2,8,3.6-7.3,6.6-18.9,8.5-33.3a288.51,288.51,0,0,1,24.9-28.3C868.8,74.1,907.4,62.9,907.4,62.9Z"/><path class="cls-3" d="M851,120.9a55.44,55.44,0,0,0-11,3.3,105.21,105.21,0,0,0-30.5,19c-.3-10.7-3-23-8.1-35.4a52.91,52.91,0,0,0-5.2-9.7C811.9,74.3,842.4,64,842.4,64S856.7,93,851,120.9Z"/><path class="cls-3" d="M796.2,98.1a52.91,52.91,0,0,0-5.2,9.7c-5,12.2-7.7,24.2-8.1,34.8-7.8-7.3-18.3-14-30.5-19.1a58.42,58.42,0,0,0-11.1-3.3c-5.3-27.7,8.8-56,8.8-56S780.5,74.4,796.2,98.1Z"/><path class="cls-3" d="M763.1,161.3c-10.5.4-22.6,3.1-34.7,8.1a66.88,66.88,0,0,0-9.9,5.3c-23.3-15.8-33.4-45.8-33.4-45.8s28.4-14.1,56.1-8.7a57.26,57.26,0,0,0,3.3,11.2C749.5,143.3,756,153.6,763.1,161.3Z"/><path class="cls-3" d="M763.4,188.4c-7.1,7.7-13.6,18-18.6,30a55.44,55.44,0,0,0-3.3,11c-27.9,5.7-56.8-8.6-56.8-8.6s10.2-30.3,33.8-46.1a53.82,53.82,0,0,0,10.3,5.6A105.24,105.24,0,0,0,763.4,188.4Z"/><path class="cls-3" d="M795.9,252.4c-15.9,23.2-45.7,33.3-45.7,33.3s-14.1-28.5-8.7-56.3a56.63,56.63,0,0,0,10.4-3.2,100.56,100.56,0,0,0,30.3-18.9,102,102,0,0,0,8.1,34.8A67.68,67.68,0,0,0,795.9,252.4Z"/><path class="cls-3" d="M907.2,129.6s-10.1,29.9-33.3,45.7a58.4,58.4,0,0,0-10.7-5.9,104.53,104.53,0,0,0-34.1-8.1,103.74,103.74,0,0,0,18.7-30.1,65.58,65.58,0,0,0,3.2-10.4C878.8,115.5,907.2,129.6,907.2,129.6Z"/><path class="cls-3" d="M841.7,285.8s-30-10.1-45.8-33.4a61.31,61.31,0,0,0,5.7-10.4,105.07,105.07,0,0,0,8.1-34.2c7.7,7.1,18,13.6,30,18.6a51.49,51.49,0,0,0,10.8,3.2C855.8,257.3,841.7,285.8,841.7,285.8Z"/><path class="cls-3" d="M907,220.9s-28.7,14.2-56.5,8.7a55.44,55.44,0,0,0-3.3-11,105.61,105.61,0,0,0-18.1-29.5c10.5-.4,22.4-3.1,34.5-8.1a55,55,0,0,0,10.4-5.7C897,191.3,907,220.9,907,220.9Z"/><polygon class="cls-4" points="822.1 110.4 796.2 151.9 767.2 110.4 780.4 159.2 728.4 148.3 773.7 175 728.4 201.9 780.4 190.8 767.2 239.7 796.2 197.5 822.1 239.7 812.6 190.8 860.9 201.9 819.3 175 860.9 148.3 812 159.2 822.1 110.4"/><polygon class="cls-5" points="796 88.2 792.5 165.4 735.3 112.8 788 171.1 710.1 174.6 786.8 178 735.9 233.5 792.5 183.2 796 259.8 799.4 183.7 855.5 234.6 804.5 178 880.6 174.6 805.7 170.6 856.6 113.9 800 165.4 796 88.2"/><polygon class="cls-6" points="814.4 129 796.4 158.6 776.2 129 785.4 163.8 749.2 156 780.8 175.1 749.2 194.2 785.4 186.3 776.2 221.3 796.4 191.1 814.4 221.3 807.8 186.3 841.5 194.2 812.5 175.1 841.5 156 807.4 163.8 814.4 129"/><path class="cls-7" d="M166.9,139.2c-.2,17.2-2.8,35.4-15.8,47.2s-33,20.8-50.8,20.8l-56.8-.3v78L0,284.4V72.9H94.3q31.35,0,52.2,18.8T166.9,139.2Zm-39.2-3.5c-.6-6.3-4.5-13-10.5-17.8-5.4-4.3-21.2-8.1-34.2-8.1l-39.6-.5,1,59.1H84.7c13.6,0,28.4.1,36.2-9.8A30.84,30.84,0,0,0,127.7,135.7Z"/><path class="cls-7" d="M383.3,282.1H335.6l-31-64.2-97.5.8-29.3,63.4H131.9L231.4,70.3h50.5ZM289.8,178.9l-32.4-74.7L225,179.1Z"/><path class="cls-7" d="M589.2,175.4q0,43.5-31.2,74.5T483.6,281l-87.3,1.1L394,69.5h79.1q50.55,0,83.3,30.2T589.2,175.4Zm-40.1-1.9c-.6-23.5-12.7-38.6-19.3-46.6-15.3-18.5-28.3-19.7-52.7-19.7H435.2V241.3l46.2-.7c24,0,31.3-2.6,49.3-18.8C540.3,213.3,549.9,197.6,549.1,173.5Z"/><path class="cls-8" d="M1119.9,220.8q.3,25.8-18.3,44.1t-45,18.3c-17.6,0-32.5-6-44.8-18.2s-18.5-27.2-18.7-45.4h22.2a41.22,41.22,0,0,0,11.8,30.2,39.45,39.45,0,0,0,29.1,13,41.53,41.53,0,0,0,30.6-12.1,38.71,38.71,0,0,0,12.2-30.3q-.9-29.4-38.8-41.3l-22.5-7c-11.9-3.7-21.2-10-27.8-19.1s-10-20-10.2-32.6c-.2-15.6,5.6-28.9,17.3-39.8a57.88,57.88,0,0,1,41.5-16.1c15.8.2,29.2,5.9,40.2,17.2a56.1,56.1,0,0,1,16.5,40.6H1093a35.83,35.83,0,0,0-9.7-25.8,34.75,34.75,0,0,0-24.5-11.6c-10.2-.6-19.2,2.8-27,10.1s-11.5,16-11.1,26.1c.4,16.6,8.4,27.3,24.2,32.3l25.6,8Q1119.25,176.85,1119.9,220.8Z"/><path class="cls-8" d="M1361.1,122.6l-58.9,156.8h-24.4l-34.1-103.8-32,103.8h-24.2l-59.4-156.8h22.1l48.9,130.6,36.3-111.6h17.9L1289,252.2l49.5-129.5h22.6Z"/><path class="cls-8" d="M1518.9,200.7v78.7H1498V254.9c-17,19.4-37.8,28.8-62.5,28-21.5-.7-39.9-9.1-55.1-25s-22.7-34.9-22.7-56.9q0-34.35,24.5-59c16.3-16.4,35.8-24.2,58.6-23.2q33,1,56.1,25.2Q1520,168,1518.9,200.7Zm-20.9-1.5c-.4-16.5-6.2-30.7-17.6-42.4s-25.1-17.6-41.1-17.6c-16.7,0-31,5.9-42.7,17.6s-17.7,26-17.9,42.7q-.6,24.75,16.4,43.4t40.9,19.7q25.95,1,44.2-18.1C1492.4,231.8,1498.4,216.7,1498,199.2Z"/><path class="cls-8" d="M1702.3,200.7q0,34.35-24.5,59c-16.3,16.4-35.8,24.2-58.3,23.5q-34.65-1.35-58-27.8v78.9h-20.4V201q0-33.75,24.6-58.4t58.4-23.5q32.7.75,55.4,24.8C1694.8,159.8,1702.3,178.7,1702.3,200.7Zm-20.9,1.7a61.32,61.32,0,0,0-16.6-43.5c-11.2-12.4-25-18.9-41.2-19.5q-25.95-1.35-44.3,18c-12.2,12.9-18.2,28-17.8,45.3q.6,24.9,17.7,42.5t41.4,17.7a57.69,57.69,0,0,0,42.5-17.7A59.55,59.55,0,0,0,1681.4,202.4Z"/></g></g></svg>